<mxfile host="app.diagrams.net" modified="2021-03-02T12:25:11.829Z" agent="5.0 (Windows NT 10.0; Win64; x64) AppleWebKit/537.36 (KHTML, like Gecko) Chrome/65.0.3325.146 Safari/537.36" etag="PEC_2tksn6td2owSp-eI" version="14.4.2" type="github">
  <diagram id="SMlNA8TWrgRxaHDRVozD" name="Page-1">
    <mxGraphModel dx="1038" dy="511" grid="1" gridSize="10" guides="1" tooltips="1" connect="1" arrows="1" fold="1" page="1" pageScale="1" pageWidth="827" pageHeight="1169" math="0" shadow="0">
      <root>
        <mxCell id="0" />
        <mxCell id="1" parent="0" />
        <mxCell id="Jsfrg6cCLuTZJZ_JC_Oj-5" value="" style="group" vertex="1" connectable="0" parent="1">
          <mxGeometry x="150" y="240" width="150" height="60" as="geometry" />
        </mxCell>
        <mxCell id="Jsfrg6cCLuTZJZ_JC_Oj-2" value="&lt;font style=&quot;font-size: 20px&quot;&gt;服务消&lt;br&gt;费者&lt;/font&gt;" style="rounded=1;whiteSpace=wrap;html=1;align=left;fillColor=#dae8fc;strokeColor=#6c8ebf;" vertex="1" parent="Jsfrg6cCLuTZJZ_JC_Oj-5">
          <mxGeometry width="150" height="60" as="geometry" />
        </mxCell>
        <mxCell id="Jsfrg6cCLuTZJZ_JC_Oj-3" value="" style="endArrow=none;html=1;entryX=0.5;entryY=0;entryDx=0;entryDy=0;" edge="1" parent="Jsfrg6cCLuTZJZ_JC_Oj-5">
          <mxGeometry width="50" height="50" relative="1" as="geometry">
            <mxPoint x="67" y="60" as="sourcePoint" />
            <mxPoint x="67" as="targetPoint" />
          </mxGeometry>
        </mxCell>
        <mxCell id="Jsfrg6cCLuTZJZ_JC_Oj-4" value="&lt;font style=&quot;font-size: 20px&quot;&gt;Eureka&lt;br&gt;Client&lt;/font&gt;" style="rounded=0;whiteSpace=wrap;html=1;fillColor=#dae8fc;strokeColor=none;" vertex="1" parent="Jsfrg6cCLuTZJZ_JC_Oj-5">
          <mxGeometry x="68" y="5" width="75" height="50" as="geometry" />
        </mxCell>
        <mxCell id="Jsfrg6cCLuTZJZ_JC_Oj-6" value="" style="group;fillColor=#dae8fc;strokeColor=#6c8ebf;" vertex="1" connectable="0" parent="1">
          <mxGeometry x="414" y="240" width="150" height="60" as="geometry" />
        </mxCell>
        <mxCell id="Jsfrg6cCLuTZJZ_JC_Oj-7" value="&lt;font style=&quot;font-size: 20px&quot;&gt;服务提&lt;br&gt;供者&lt;/font&gt;" style="rounded=1;whiteSpace=wrap;html=1;align=left;fillColor=#dae8fc;strokeColor=#6c8ebf;" vertex="1" parent="Jsfrg6cCLuTZJZ_JC_Oj-6">
          <mxGeometry width="150" height="60" as="geometry" />
        </mxCell>
        <mxCell id="Jsfrg6cCLuTZJZ_JC_Oj-8" value="" style="endArrow=none;html=1;entryX=0.5;entryY=0;entryDx=0;entryDy=0;" edge="1" parent="Jsfrg6cCLuTZJZ_JC_Oj-6">
          <mxGeometry width="50" height="50" relative="1" as="geometry">
            <mxPoint x="67" y="60" as="sourcePoint" />
            <mxPoint x="67" as="targetPoint" />
          </mxGeometry>
        </mxCell>
        <mxCell id="Jsfrg6cCLuTZJZ_JC_Oj-9" value="&lt;font style=&quot;font-size: 20px&quot;&gt;Eureka&lt;br&gt;Client&lt;/font&gt;" style="rounded=0;whiteSpace=wrap;html=1;fillColor=#dae8fc;strokeColor=none;" vertex="1" parent="Jsfrg6cCLuTZJZ_JC_Oj-6">
          <mxGeometry x="68" y="5" width="75" height="55" as="geometry" />
        </mxCell>
        <mxCell id="Jsfrg6cCLuTZJZ_JC_Oj-11" value="" style="group;fillColor=#f8cecc;strokeColor=#b85450;" vertex="1" connectable="0" parent="1">
          <mxGeometry x="280" y="80" width="150" height="60" as="geometry" />
        </mxCell>
        <mxCell id="Jsfrg6cCLuTZJZ_JC_Oj-12" value="&lt;span style=&quot;font-size: 20px&quot;&gt;注册&lt;br&gt;中心&lt;/span&gt;" style="rounded=1;whiteSpace=wrap;html=1;align=left;fillColor=#f8cecc;strokeColor=#b85450;" vertex="1" parent="Jsfrg6cCLuTZJZ_JC_Oj-11">
          <mxGeometry width="150" height="60" as="geometry" />
        </mxCell>
        <mxCell id="Jsfrg6cCLuTZJZ_JC_Oj-13" value="" style="endArrow=none;html=1;entryX=0.5;entryY=0;entryDx=0;entryDy=0;" edge="1" parent="Jsfrg6cCLuTZJZ_JC_Oj-11">
          <mxGeometry width="50" height="50" relative="1" as="geometry">
            <mxPoint x="67" y="60" as="sourcePoint" />
            <mxPoint x="67" as="targetPoint" />
          </mxGeometry>
        </mxCell>
        <mxCell id="Jsfrg6cCLuTZJZ_JC_Oj-14" value="&lt;font style=&quot;font-size: 20px&quot;&gt;Eureka&lt;br&gt;Server&lt;br&gt;&lt;/font&gt;" style="rounded=0;whiteSpace=wrap;html=1;fillColor=#f8cecc;strokeColor=none;" vertex="1" parent="Jsfrg6cCLuTZJZ_JC_Oj-11">
          <mxGeometry x="68" y="5" width="75" height="55" as="geometry" />
        </mxCell>
        <mxCell id="Jsfrg6cCLuTZJZ_JC_Oj-15" value="" style="endArrow=classic;html=1;fontSize=20;entryX=0;entryY=1;entryDx=0;entryDy=0;exitX=0.448;exitY=0.02;exitDx=0;exitDy=0;exitPerimeter=0;" edge="1" parent="1" source="Jsfrg6cCLuTZJZ_JC_Oj-7" target="Jsfrg6cCLuTZJZ_JC_Oj-14">
          <mxGeometry width="50" height="50" relative="1" as="geometry">
            <mxPoint x="430" y="190" as="sourcePoint" />
            <mxPoint x="480" y="140" as="targetPoint" />
          </mxGeometry>
        </mxCell>
        <mxCell id="Jsfrg6cCLuTZJZ_JC_Oj-18" value="1,注册实例&lt;br&gt;2，每30秒，向server发送心中" style="edgeLabel;html=1;align=center;verticalAlign=middle;resizable=0;points=[];fontSize=20;" vertex="1" connectable="0" parent="Jsfrg6cCLuTZJZ_JC_Oj-15">
          <mxGeometry x="0.1668" y="2" relative="1" as="geometry">
            <mxPoint x="155.04" y="-3.51" as="offset" />
          </mxGeometry>
        </mxCell>
        <mxCell id="Jsfrg6cCLuTZJZ_JC_Oj-17" value="拉取所有的注册信息" style="endArrow=classic;html=1;fontSize=20;exitX=0.453;exitY=-0.027;exitDx=0;exitDy=0;exitPerimeter=0;entryX=0.424;entryY=1.02;entryDx=0;entryDy=0;entryPerimeter=0;" edge="1" parent="1" source="Jsfrg6cCLuTZJZ_JC_Oj-2" target="Jsfrg6cCLuTZJZ_JC_Oj-12">
          <mxGeometry x="-0.6295" y="51" width="50" height="50" relative="1" as="geometry">
            <mxPoint x="190" y="240" as="sourcePoint" />
            <mxPoint x="330" y="140" as="targetPoint" />
            <mxPoint as="offset" />
          </mxGeometry>
        </mxCell>
        <mxCell id="Jsfrg6cCLuTZJZ_JC_Oj-19" value="将注册信息保存到内存中" style="rounded=0;whiteSpace=wrap;html=1;fontSize=20;fillColor=#fff2cc;strokeColor=#d6b656;" vertex="1" parent="1">
          <mxGeometry x="430" width="130" height="60" as="geometry" />
        </mxCell>
        <mxCell id="Jsfrg6cCLuTZJZ_JC_Oj-20" value="存取拉取的注册信息" style="rounded=0;whiteSpace=wrap;html=1;fontSize=20;fillColor=#fff2cc;strokeColor=#d6b656;" vertex="1" parent="1">
          <mxGeometry x="100" y="350" width="130" height="60" as="geometry" />
        </mxCell>
        <mxCell id="Jsfrg6cCLuTZJZ_JC_Oj-21" value="" style="endArrow=none;html=1;fontSize=20;" edge="1" parent="1">
          <mxGeometry width="50" height="50" relative="1" as="geometry">
            <mxPoint x="380" y="80" as="sourcePoint" />
            <mxPoint x="430" y="30" as="targetPoint" />
          </mxGeometry>
        </mxCell>
        <mxCell id="Jsfrg6cCLuTZJZ_JC_Oj-22" value="" style="endArrow=none;html=1;fontSize=20;" edge="1" parent="1">
          <mxGeometry width="50" height="50" relative="1" as="geometry">
            <mxPoint x="170" y="350" as="sourcePoint" />
            <mxPoint x="220" y="300" as="targetPoint" />
          </mxGeometry>
        </mxCell>
      </root>
    </mxGraphModel>
  </diagram>
</mxfile>
